<svg width="512" height="512" viewBox="0 0 512 512" xmlns="http://www.w3.org/2000/svg">
  <rect width="512" height="512" rx="100" fill="#9333ea"/>
  <g transform="translate(128, 96)">
    <path d="M192 64v192c0 35.346-28.654 64-64 64s-64-28.654-64-64 28.654-64 64-64c11.782 0 22.834 3.189 32.363 8.736V64h32z" fill="white"/>
    <circle cx="128" cy="256" r="32" fill="#c084fc"/>
    <path d="M224 32v128c0 23.564-19.102 42.667-42.667 42.667S138.667 183.564 138.667 160s19.102-42.667 42.667-42.667c7.853 0 15.224 2.128 21.575 5.824V32h21.333z" fill="white"/>
    <circle cx="181.333" cy="160" r="21.333" fill="#c084fc"/>
  </g>
</svg>
