<svg width="192" height="192" viewBox="0 0 192 192" xmlns="http://www.w3.org/2000/svg">
  <rect width="192" height="192" rx="40" fill="#9333ea"/>
  <g transform="translate(48, 36)">
    <path d="M72 24v72c0 13.255-10.745 24-24 24S24 109.255 24 96s10.745-24 24-24c4.418 0 8.563 1.196 12.136 3.276V24h12z" fill="white"/>
    <circle cx="48" cy="96" r="12" fill="#c084fc"/>
    <path d="M84 12v48c0 8.837-7.163 16-16 16s-16-7.163-16-16 7.163-16 16-16c2.945 0 5.709.798 8.091 2.184V12h8z" fill="white"/>
    <circle cx="68" cy="60" r="8" fill="#c084fc"/>
  </g>
</svg>
